<?xml version="1.0" encoding="utf-8"?>
<!-- Generator: Adobe Illustrator 19.1.0, SVG Export Plug-In . SVG Version: 6.00 Build 0)  -->
<svg version="1.1" id="Layer_1" xmlns="http://www.w3.org/2000/svg" xmlns:xlink="http://www.w3.org/1999/xlink" x="0px" y="0px"
	 viewBox="0 0 1024 1024" style="enable-background:new 0 0 1024 1024;" xml:space="preserve">
<style type="text/css">
	.st0{fill:none;}
	.st1{fill:#FCEE21;stroke:#000000;stroke-width:3;stroke-miterlimit:10;}
	.st2{fill:none;stroke:#000000;stroke-width:3;stroke-miterlimit:10;}
	.st3{fill:#4D4D4D;stroke:#000000;stroke-width:3;stroke-miterlimit:10;}
	.st4{display:none;}
	.st5{display:inline;fill:none;stroke:#FFFFFF;stroke-width:7;stroke-miterlimit:10;}
</style>
<path id="XMLID_6_" class="st0" d="M1012,1024H12c-6.6,0-12-5.4-12-12V12C0,5.4,5.4,0,12,0h1000c6.6,0,12,5.4,12,12v1000
	C1024,1018.6,1018.6,1024,1012,1024z"/>
<g id="XMLID_7_">
	
		<image style="overflow:visible;opacity:0.75;" width="922" height="787" xlink:href="4191C6A37714A155.png"  transform="matrix(1 0 0 1 48 74)">
	</image>
	<g>
		<g>
			<path id="XMLID_72_" class="st1" d="M904.8,152.5c-4.1,16.9-8.7,43-6.1,74.4c3.8,45.3,20.6,77,24.1,84.9
				c32.6,72.3-71,301.8-268.1,420.9C393.8,890.4,73.7,791.1,71,757c-1.6-19.9,107.1-50.2,116.2-52.7c35.5-9.8,47.4-8.6,107.3-21.5
				c33.8-7.3,67.6-14.5,102.8-25.9c28.4-9.2,90.5-29.7,158.2-77.8c10.8-7.7,62.2-44.7,115.3-109.9c37.4-46,27-47.7,72.4-109.9
				c63.3-87,88.4-91.7,99.2-139.4c11.9-52.7-8-94.1,8-101.9C863.1,111.7,886.1,132.4,904.8,152.5z"/>
			<path id="XMLID_71_" class="st2" d="M160.9,771.8c64.6,2.2,231.5-0.7,404.6-105.9C737.4,561.4,816.8,416,844.8,357.7"/>
			<path id="XMLID_70_" class="st3" d="M72.4,755.8c2.8-16.1,55.4-26.6,63.5-15.4c6.5,8.9-9,40.1-34.1,38.9
				C86.1,778.5,70.8,765.2,72.4,755.8z"/>
			<path id="XMLID_69_" class="st3" d="M180.2,788.8"/>
			<path id="XMLID_68_" class="st3" d="M905.7,124.7l4.4,25.9c3.2,18.7-9.5,36.7-28.3,39.9L873,192c-18.7,3.2-36.7-9.5-39.9-28.3
				l-4.4-25.9c-3.2-18.7,9.5-36.7,28.3-39.9l8.8-1.5C884.5,93.2,902.5,106,905.7,124.7z"/>
		</g>
	</g>
</g>
<g id="XMLID_8_" class="st4">
	<path id="XMLID_9_" class="st5" d="M296.3,542.4C354.1,344.6,519,273.1,619,269.8"/>
	<path id="XMLID_10_" class="st5" d="M250.6,424.4c43.4-148.4,167.1-202,242-204.5"/>
	<path id="XMLID_11_" class="st5" d="M194.9,314.8c32.5-111.3,125.3-151.5,181.5-153.4"/>
</g>
</svg>
